<svg xmlns="http://www.w3.org/2000/svg" viewBox="0 0 420 400" width="420" height="400" font-size="12"><rect width="420" height="400" fill="#fff"/><rect x="52" y="40" width="350" height="314" fill="#fff" stroke="#9aa0a6" stroke-width="1"/><text x="210" y="16" text-anchor="middle" font-family="-apple-system,Segoe UI,Helvetica,Arial,sans-serif" font-size="13" font-weight="600" fill="#222222">Predicted vs measured (44 rides)</text><line x1="52.0" y1="40" x2="52.0" y2="354" stroke="#eef0f2" stroke-width="1"/><text x="52.0" y="370" text-anchor="middle" font-family="-apple-system,Segoe UI,Helvetica,Arial,sans-serif" font-size="11" fill="#222222">0</text><line x1="146.7" y1="40" x2="146.7" y2="354" stroke="#eef0f2" stroke-width="1"/><text x="146.7" y="370" text-anchor="middle" font-family="-apple-system,Segoe UI,Helvetica,Arial,sans-serif" font-size="11" fill="#222222">2</text><line x1="241.4" y1="40" x2="241.4" y2="354" stroke="#eef0f2" stroke-width="1"/><text x="241.4" y="370" text-anchor="middle" font-family="-apple-system,Segoe UI,Helvetica,Arial,sans-serif" font-size="11" fill="#222222">4</text><line x1="336.2" y1="40" x2="336.2" y2="354" stroke="#eef0f2" stroke-width="1"/><text x="336.2" y="370" text-anchor="middle" font-family="-apple-system,Segoe UI,Helvetica,Arial,sans-serif" font-size="11" fill="#222222">6</text><line x1="52" y1="354.0" x2="402" y2="354.0" stroke="#eef0f2" stroke-width="1"/><text x="44" y="358.0" text-anchor="end" font-family="-apple-system,Segoe UI,Helvetica,Arial,sans-serif" font-size="11" fill="#222222">0</text><line x1="52" y1="269.0" x2="402" y2="269.0" stroke="#eef0f2" stroke-width="1"/><text x="44" y="273.0" text-anchor="end" font-family="-apple-system,Segoe UI,Helvetica,Arial,sans-serif" font-size="11" fill="#222222">2</text><line x1="52" y1="184.1" x2="402" y2="184.1" stroke="#eef0f2" stroke-width="1"/><text x="44" y="188.1" text-anchor="end" font-family="-apple-system,Segoe UI,Helvetica,Arial,sans-serif" font-size="11" fill="#222222">4</text><line x1="52" y1="99.1" x2="402" y2="99.1" stroke="#eef0f2" stroke-width="1"/><text x="44" y="103.1" text-anchor="end" font-family="-apple-system,Segoe UI,Helvetica,Arial,sans-serif" font-size="11" fill="#222222">6</text><text x="227" y="394" text-anchor="middle" font-family="-apple-system,Segoe UI,Helvetica,Arial,sans-serif" font-size="12" fill="#222222">measured ∫P·dt  (MJ)</text><text x="14" y="197" text-anchor="middle" font-family="-apple-system,Segoe UI,Helvetica,Arial,sans-serif" font-size="12" fill="#222222" transform="rotate(-90 14 197)">predicted energy  (MJ)</text><path d="M52.0,354.0 L402.0,40.0" fill="none" stroke="#9aa0a6" stroke-width="1.2" stroke-dasharray="4 3"/><circle cx="182.0" cy="224.6" r="4.2" fill="#D55E00" fill-opacity="0.8" stroke="none" stroke-width="0.8"/><circle cx="182.0" cy="224.6" r="4.2" fill="#0072B2" fill-opacity="0.7" stroke="none" stroke-width="0.8"/><circle cx="186.2" cy="227.0" r="4.2" fill="#D55E00" fill-opacity="0.8" stroke="none" stroke-width="0.8"/><circle cx="186.2" cy="222.9" r="4.2" fill="#0072B2" fill-opacity="0.7" stroke="none" stroke-width="0.8"/><circle cx="188.6" cy="222.1" r="4.2" fill="#D55E00" fill-opacity="0.8" stroke="none" stroke-width="0.8"/><circle cx="188.6" cy="224.8" r="4.2" fill="#0072B2" fill-opacity="0.7" stroke="none" stroke-width="0.8"/><circle cx="229.4" cy="193.5" r="4.2" fill="#D55E00" fill-opacity="0.8" stroke="none" stroke-width="0.8"/><circle cx="229.4" cy="200.8" r="4.2" fill="#0072B2" fill-opacity="0.7" stroke="none" stroke-width="0.8"/><circle cx="183.1" cy="229.8" r="4.2" fill="#D55E00" fill-opacity="0.8" stroke="none" stroke-width="0.8"/><circle cx="183.1" cy="240.8" r="4.2" fill="#0072B2" fill-opacity="0.7" stroke="none" stroke-width="0.8"/><circle cx="183.9" cy="233.4" r="4.2" fill="#D55E00" fill-opacity="0.8" stroke="none" stroke-width="0.8"/><circle cx="183.9" cy="241.2" r="4.2" fill="#0072B2" fill-opacity="0.7" stroke="none" stroke-width="0.8"/><circle cx="155.0" cy="263.1" r="4.2" fill="#D55E00" fill-opacity="0.8" stroke="none" stroke-width="0.8"/><circle cx="155.0" cy="266.0" r="4.2" fill="#0072B2" fill-opacity="0.7" stroke="none" stroke-width="0.8"/><circle cx="242.2" cy="183.6" r="4.2" fill="#D55E00" fill-opacity="0.8" stroke="none" stroke-width="0.8"/><circle cx="242.2" cy="197.6" r="4.2" fill="#0072B2" fill-opacity="0.7" stroke="none" stroke-width="0.8"/><circle cx="185.7" cy="234.2" r="4.2" fill="#D55E00" fill-opacity="0.8" stroke="none" stroke-width="0.8"/><circle cx="185.7" cy="239.4" r="4.2" fill="#0072B2" fill-opacity="0.7" stroke="none" stroke-width="0.8"/><circle cx="102.3" cy="309.6" r="4.2" fill="#D55E00" fill-opacity="0.8" stroke="none" stroke-width="0.8"/><circle cx="102.3" cy="310.0" r="4.2" fill="#0072B2" fill-opacity="0.7" stroke="none" stroke-width="0.8"/><circle cx="123.2" cy="293.6" r="4.2" fill="#D55E00" fill-opacity="0.8" stroke="none" stroke-width="0.8"/><circle cx="123.2" cy="293.4" r="4.2" fill="#0072B2" fill-opacity="0.7" stroke="none" stroke-width="0.8"/><circle cx="181.7" cy="236.3" r="4.2" fill="#D55E00" fill-opacity="0.8" stroke="none" stroke-width="0.8"/><circle cx="181.7" cy="250.2" r="4.2" fill="#0072B2" fill-opacity="0.7" stroke="none" stroke-width="0.8"/><circle cx="123.6" cy="294.4" r="4.2" fill="#D55E00" fill-opacity="0.8" stroke="none" stroke-width="0.8"/><circle cx="123.6" cy="295.0" r="4.2" fill="#0072B2" fill-opacity="0.7" stroke="none" stroke-width="0.8"/><circle cx="188.6" cy="231.0" r="4.2" fill="#D55E00" fill-opacity="0.8" stroke="none" stroke-width="0.8"/><circle cx="188.6" cy="237.6" r="4.2" fill="#0072B2" fill-opacity="0.7" stroke="none" stroke-width="0.8"/><circle cx="174.8" cy="238.5" r="4.2" fill="#D55E00" fill-opacity="0.8" stroke="none" stroke-width="0.8"/><circle cx="174.8" cy="243.4" r="4.2" fill="#0072B2" fill-opacity="0.7" stroke="none" stroke-width="0.8"/><circle cx="191.1" cy="231.9" r="4.2" fill="#D55E00" fill-opacity="0.8" stroke="none" stroke-width="0.8"/><circle cx="191.1" cy="233.2" r="4.2" fill="#0072B2" fill-opacity="0.7" stroke="none" stroke-width="0.8"/><circle cx="120.2" cy="293.0" r="4.2" fill="#D55E00" fill-opacity="0.8" stroke="none" stroke-width="0.8"/><circle cx="120.2" cy="294.4" r="4.2" fill="#0072B2" fill-opacity="0.7" stroke="none" stroke-width="0.8"/><circle cx="187.8" cy="250.8" r="4.2" fill="#D55E00" fill-opacity="0.8" stroke="none" stroke-width="0.8"/><circle cx="187.8" cy="249.7" r="4.2" fill="#0072B2" fill-opacity="0.7" stroke="none" stroke-width="0.8"/><circle cx="112.0" cy="299.8" r="4.2" fill="#D55E00" fill-opacity="0.8" stroke="none" stroke-width="0.8"/><circle cx="112.0" cy="300.6" r="4.2" fill="#0072B2" fill-opacity="0.7" stroke="none" stroke-width="0.8"/><circle cx="291.5" cy="90.2" r="4.2" fill="#D55E00" fill-opacity="0.8" stroke="none" stroke-width="0.8"/><circle cx="291.5" cy="85.7" r="4.2" fill="#0072B2" fill-opacity="0.7" stroke="none" stroke-width="0.8"/><circle cx="203.2" cy="216.4" r="4.2" fill="#D55E00" fill-opacity="0.8" stroke="none" stroke-width="0.8"/><circle cx="203.2" cy="220.5" r="4.2" fill="#0072B2" fill-opacity="0.7" stroke="none" stroke-width="0.8"/><circle cx="132.9" cy="268.5" r="4.2" fill="#D55E00" fill-opacity="0.8" stroke="none" stroke-width="0.8"/><circle cx="132.9" cy="271.5" r="4.2" fill="#0072B2" fill-opacity="0.7" stroke="none" stroke-width="0.8"/><circle cx="144.6" cy="268.0" r="4.2" fill="#D55E00" fill-opacity="0.8" stroke="none" stroke-width="0.8"/><circle cx="144.6" cy="272.1" r="4.2" fill="#0072B2" fill-opacity="0.7" stroke="none" stroke-width="0.8"/><circle cx="142.0" cy="262.0" r="4.2" fill="#D55E00" fill-opacity="0.8" stroke="none" stroke-width="0.8"/><circle cx="142.0" cy="268.5" r="4.2" fill="#0072B2" fill-opacity="0.7" stroke="none" stroke-width="0.8"/><circle cx="130.0" cy="281.5" r="4.2" fill="#D55E00" fill-opacity="0.8" stroke="none" stroke-width="0.8"/><circle cx="130.0" cy="282.4" r="4.2" fill="#0072B2" fill-opacity="0.7" stroke="none" stroke-width="0.8"/><circle cx="179.0" cy="243.9" r="4.2" fill="#D55E00" fill-opacity="0.8" stroke="none" stroke-width="0.8"/><circle cx="179.0" cy="247.0" r="4.2" fill="#0072B2" fill-opacity="0.7" stroke="none" stroke-width="0.8"/><circle cx="140.1" cy="280.3" r="4.2" fill="#D55E00" fill-opacity="0.8" stroke="none" stroke-width="0.8"/><circle cx="140.1" cy="279.4" r="4.2" fill="#0072B2" fill-opacity="0.7" stroke="none" stroke-width="0.8"/><circle cx="169.7" cy="247.2" r="4.2" fill="#D55E00" fill-opacity="0.8" stroke="none" stroke-width="0.8"/><circle cx="169.7" cy="251.6" r="4.2" fill="#0072B2" fill-opacity="0.7" stroke="none" stroke-width="0.8"/><circle cx="114.2" cy="286.3" r="4.2" fill="#D55E00" fill-opacity="0.8" stroke="none" stroke-width="0.8"/><circle cx="114.2" cy="285.0" r="4.2" fill="#0072B2" fill-opacity="0.7" stroke="none" stroke-width="0.8"/><circle cx="248.3" cy="107.8" r="4.2" fill="#D55E00" fill-opacity="0.8" stroke="none" stroke-width="0.8"/><circle cx="248.3" cy="118.1" r="4.2" fill="#0072B2" fill-opacity="0.7" stroke="none" stroke-width="0.8"/><circle cx="294.6" cy="135.7" r="4.2" fill="#D55E00" fill-opacity="0.8" stroke="none" stroke-width="0.8"/><circle cx="294.6" cy="151.0" r="4.2" fill="#0072B2" fill-opacity="0.7" stroke="none" stroke-width="0.8"/><circle cx="132.8" cy="276.4" r="4.2" fill="#D55E00" fill-opacity="0.8" stroke="none" stroke-width="0.8"/><circle cx="132.8" cy="278.9" r="4.2" fill="#0072B2" fill-opacity="0.7" stroke="none" stroke-width="0.8"/><circle cx="112.3" cy="298.3" r="4.2" fill="#D55E00" fill-opacity="0.8" stroke="none" stroke-width="0.8"/><circle cx="112.3" cy="297.7" r="4.2" fill="#0072B2" fill-opacity="0.7" stroke="none" stroke-width="0.8"/><circle cx="234.0" cy="191.4" r="4.2" fill="#D55E00" fill-opacity="0.8" stroke="none" stroke-width="0.8"/><circle cx="234.0" cy="203.5" r="4.2" fill="#0072B2" fill-opacity="0.7" stroke="none" stroke-width="0.8"/><circle cx="114.0" cy="296.6" r="4.2" fill="#D55E00" fill-opacity="0.8" stroke="none" stroke-width="0.8"/><circle cx="114.0" cy="291.3" r="4.2" fill="#0072B2" fill-opacity="0.7" stroke="none" stroke-width="0.8"/><circle cx="172.4" cy="245.2" r="4.2" fill="#D55E00" fill-opacity="0.8" stroke="none" stroke-width="0.8"/><circle cx="172.4" cy="256.3" r="4.2" fill="#0072B2" fill-opacity="0.7" stroke="none" stroke-width="0.8"/><circle cx="200.1" cy="199.8" r="4.2" fill="#D55E00" fill-opacity="0.8" stroke="none" stroke-width="0.8"/><circle cx="200.1" cy="206.6" r="4.2" fill="#0072B2" fill-opacity="0.7" stroke="none" stroke-width="0.8"/><circle cx="242.2" cy="175.1" r="4.2" fill="#D55E00" fill-opacity="0.8" stroke="none" stroke-width="0.8"/><circle cx="242.2" cy="184.1" r="4.2" fill="#0072B2" fill-opacity="0.7" stroke="none" stroke-width="0.8"/><circle cx="108.4" cy="292.0" r="4.2" fill="#D55E00" fill-opacity="0.8" stroke="none" stroke-width="0.8"/><circle cx="108.4" cy="292.3" r="4.2" fill="#0072B2" fill-opacity="0.7" stroke="none" stroke-width="0.8"/><circle cx="185.3" cy="224.9" r="4.2" fill="#D55E00" fill-opacity="0.8" stroke="none" stroke-width="0.8"/><circle cx="185.3" cy="235.6" r="4.2" fill="#0072B2" fill-opacity="0.7" stroke="none" stroke-width="0.8"/><circle cx="138.9" cy="266.1" r="4.2" fill="#D55E00" fill-opacity="0.8" stroke="none" stroke-width="0.8"/><circle cx="138.9" cy="273.0" r="4.2" fill="#0072B2" fill-opacity="0.7" stroke="none" stroke-width="0.8"/><circle cx="225.5" cy="192.1" r="4.2" fill="#D55E00" fill-opacity="0.8" stroke="none" stroke-width="0.8"/><circle cx="225.5" cy="199.4" r="4.2" fill="#0072B2" fill-opacity="0.7" stroke="none" stroke-width="0.8"/><circle cx="242.4" cy="178.9" r="4.2" fill="#D55E00" fill-opacity="0.8" stroke="none" stroke-width="0.8"/><circle cx="242.4" cy="186.2" r="4.2" fill="#0072B2" fill-opacity="0.7" stroke="none" stroke-width="0.8"/><circle cx="385.3" cy="55.0" r="4.2" fill="#D55E00" fill-opacity="0.8" stroke="none" stroke-width="0.8"/><circle cx="385.3" cy="76.3" r="4.2" fill="#0072B2" fill-opacity="0.7" stroke="none" stroke-width="0.8"/><rect x="64" y="47" width="12" height="12" rx="2" fill="#D55E00"/><text x="82" y="57" font-family="-apple-system,Segoe UI,Helvetica,Arial,sans-serif" font-size="11" fill="#222222">approx cf + 2 m smooth</text><rect x="64" y="65" width="12" height="12" rx="2" fill="#0072B2"/><text x="82" y="75" font-family="-apple-system,Segoe UI,Helvetica,Arial,sans-serif" font-size="11" fill="#222222">canonical</text><rect x="64" y="83" width="12" height="12" rx="2" fill="#9aa0a6"/><text x="82" y="93" font-family="-apple-system,Segoe UI,Helvetica,Arial,sans-serif" font-size="11" fill="#222222">perfect (y = x)</text></svg>
