<svg xmlns="http://www.w3.org/2000/svg" viewBox="0 0 440 320" width="440" height="320" font-size="12"><rect width="440" height="320" fill="#fff"/><rect x="54" y="34" width="368" height="240" fill="#fff" stroke="#9aa0a6" stroke-width="1"/><text x="220" y="16" text-anchor="middle" font-family="-apple-system,Segoe UI,Helvetica,Arial,sans-serif" font-size="13" font-weight="600" fill="#222222">Ascent is scale-dependent (fractal)</text><line x1="54.0" y1="34" x2="54.0" y2="274" stroke="#eef0f2" stroke-width="1"/><text x="54.0" y="290" text-anchor="middle" font-family="-apple-system,Segoe UI,Helvetica,Arial,sans-serif" font-size="11" fill="#222222">0</text><line x1="90.8" y1="34" x2="90.8" y2="274" stroke="#eef0f2" stroke-width="1"/><text x="90.8" y="290" text-anchor="middle" font-family="-apple-system,Segoe UI,Helvetica,Arial,sans-serif" font-size="11" fill="#222222">1</text><line x1="127.6" y1="34" x2="127.6" y2="274" stroke="#eef0f2" stroke-width="1"/><text x="127.6" y="290" text-anchor="middle" font-family="-apple-system,Segoe UI,Helvetica,Arial,sans-serif" font-size="11" fill="#222222">2</text><line x1="164.4" y1="34" x2="164.4" y2="274" stroke="#eef0f2" stroke-width="1"/><text x="164.4" y="290" text-anchor="middle" font-family="-apple-system,Segoe UI,Helvetica,Arial,sans-serif" font-size="11" fill="#222222">3</text><line x1="238.0" y1="34" x2="238.0" y2="274" stroke="#eef0f2" stroke-width="1"/><text x="238.0" y="290" text-anchor="middle" font-family="-apple-system,Segoe UI,Helvetica,Arial,sans-serif" font-size="11" fill="#222222">5</text><line x1="422.0" y1="34" x2="422.0" y2="274" stroke="#eef0f2" stroke-width="1"/><text x="422.0" y="290" text-anchor="middle" font-family="-apple-system,Segoe UI,Helvetica,Arial,sans-serif" font-size="11" fill="#222222">10</text><line x1="54" y1="274.0" x2="422" y2="274.0" stroke="#eef0f2" stroke-width="1"/><text x="46" y="278.0" text-anchor="end" font-family="-apple-system,Segoe UI,Helvetica,Arial,sans-serif" font-size="11" fill="#222222">0</text><line x1="54" y1="226.0" x2="422" y2="226.0" stroke="#eef0f2" stroke-width="1"/><text x="46" y="230.0" text-anchor="end" font-family="-apple-system,Segoe UI,Helvetica,Arial,sans-serif" font-size="11" fill="#222222">20</text><line x1="54" y1="178.0" x2="422" y2="178.0" stroke="#eef0f2" stroke-width="1"/><text x="46" y="182.0" text-anchor="end" font-family="-apple-system,Segoe UI,Helvetica,Arial,sans-serif" font-size="11" fill="#222222">40</text><line x1="54" y1="130.0" x2="422" y2="130.0" stroke="#eef0f2" stroke-width="1"/><text x="46" y="134.0" text-anchor="end" font-family="-apple-system,Segoe UI,Helvetica,Arial,sans-serif" font-size="11" fill="#222222">60</text><line x1="54" y1="82.0" x2="422" y2="82.0" stroke="#eef0f2" stroke-width="1"/><text x="46" y="86.0" text-anchor="end" font-family="-apple-system,Segoe UI,Helvetica,Arial,sans-serif" font-size="11" fill="#222222">80</text><line x1="54" y1="34.0" x2="422" y2="34.0" stroke="#eef0f2" stroke-width="1"/><text x="46" y="38.0" text-anchor="end" font-family="-apple-system,Segoe UI,Helvetica,Arial,sans-serif" font-size="11" fill="#222222">100</text><text x="238" y="314" text-anchor="middle" font-family="-apple-system,Segoe UI,Helvetica,Arial,sans-serif" font-size="12" fill="#222222">elevation deadband τ  (m)</text><text x="14" y="154" text-anchor="middle" font-family="-apple-system,Segoe UI,Helvetica,Arial,sans-serif" font-size="12" fill="#222222" transform="rotate(-90 14 154)">cumulative ascent Σh₊  (km)</text><path d="M54.0,52.2 L90.8,74.1 L127.6,88.2 L164.4,98.1 L238.0,113.4 L422.0,139.1" fill="none" stroke="#009E73" stroke-width="2.4"/><circle cx="54.0" cy="52.2" r="3.6" fill="#009E73" fill-opacity="1.0" stroke="none" stroke-width="0.8" data-tip="τ = 0 m: Σh₊ = 92.4 km (100% of raw)"/><circle cx="90.8" cy="74.1" r="3.6" fill="#009E73" fill-opacity="1.0" stroke="none" stroke-width="0.8" data-tip="τ = 1 m: Σh₊ = 83.3 km (90% of raw)"/><circle cx="127.6" cy="88.2" r="3.6" fill="#009E73" fill-opacity="1.0" stroke="none" stroke-width="0.8" data-tip="τ = 2 m: Σh₊ = 77.4 km (84% of raw)"/><circle cx="164.4" cy="98.1" r="3.6" fill="#009E73" fill-opacity="1.0" stroke="none" stroke-width="0.8" data-tip="τ = 3 m: Σh₊ = 73.3 km (79% of raw)"/><circle cx="238.0" cy="113.4" r="3.6" fill="#009E73" fill-opacity="1.0" stroke="none" stroke-width="0.8" data-tip="τ = 5 m: Σh₊ = 66.9 km (72% of raw)"/><circle cx="422.0" cy="139.1" r="3.6" fill="#009E73" fill-opacity="1.0" stroke="none" stroke-width="0.8" data-tip="τ = 10 m: Σh₊ = 56.2 km (61% of raw)"/><line x1="127.6" y1="88.2" x2="127.6" y2="274.0" stroke="#D55E00" stroke-width="1.4" stroke-dasharray="3 3"/><text x="133.6" y="80.2" font-family="-apple-system,Segoe UI,Helvetica,Arial,sans-serif" font-size="11" fill="#D55E00">τ = 2 m default (84% of raw)</text></svg>
