<svg xmlns="http://www.w3.org/2000/svg" viewBox="0 0 440 400" width="440" height="400" font-size="12"><rect width="440" height="400" fill="#fff"/><rect x="54" y="40" width="368" height="314" fill="#fff" stroke="#9aa0a6" stroke-width="1"/><text x="220" y="16" text-anchor="middle" font-family="-apple-system,Segoe UI,Helvetica,Arial,sans-serif" font-size="13" font-weight="600" fill="#222222">ε closed form vs measured (44 rides)</text><line x1="54.0" y1="40" x2="54.0" y2="354" stroke="#eef0f2" stroke-width="1"/><text x="54.0" y="370" text-anchor="middle" font-family="-apple-system,Segoe UI,Helvetica,Arial,sans-serif" font-size="11" fill="#222222">0</text><line x1="146.0" y1="40" x2="146.0" y2="354" stroke="#eef0f2" stroke-width="1"/><text x="146.0" y="370" text-anchor="middle" font-family="-apple-system,Segoe UI,Helvetica,Arial,sans-serif" font-size="11" fill="#222222">0.25</text><line x1="238.0" y1="40" x2="238.0" y2="354" stroke="#eef0f2" stroke-width="1"/><text x="238.0" y="370" text-anchor="middle" font-family="-apple-system,Segoe UI,Helvetica,Arial,sans-serif" font-size="11" fill="#222222">0.5</text><line x1="330.0" y1="40" x2="330.0" y2="354" stroke="#eef0f2" stroke-width="1"/><text x="330.0" y="370" text-anchor="middle" font-family="-apple-system,Segoe UI,Helvetica,Arial,sans-serif" font-size="11" fill="#222222">0.75</text><line x1="422.0" y1="40" x2="422.0" y2="354" stroke="#eef0f2" stroke-width="1"/><text x="422.0" y="370" text-anchor="middle" font-family="-apple-system,Segoe UI,Helvetica,Arial,sans-serif" font-size="11" fill="#222222">1</text><line x1="54" y1="320.4" x2="422" y2="320.4" stroke="#eef0f2" stroke-width="1"/><text x="46" y="324.4" text-anchor="end" font-family="-apple-system,Segoe UI,Helvetica,Arial,sans-serif" font-size="11" fill="#222222">-0.25</text><line x1="54" y1="264.3" x2="422" y2="264.3" stroke="#eef0f2" stroke-width="1"/><text x="46" y="268.3" text-anchor="end" font-family="-apple-system,Segoe UI,Helvetica,Arial,sans-serif" font-size="11" fill="#222222">0</text><line x1="54" y1="208.2" x2="422" y2="208.2" stroke="#eef0f2" stroke-width="1"/><text x="46" y="212.2" text-anchor="end" font-family="-apple-system,Segoe UI,Helvetica,Arial,sans-serif" font-size="11" fill="#222222">0.25</text><line x1="54" y1="152.1" x2="422" y2="152.1" stroke="#eef0f2" stroke-width="1"/><text x="46" y="156.1" text-anchor="end" font-family="-apple-system,Segoe UI,Helvetica,Arial,sans-serif" font-size="11" fill="#222222">0.5</text><line x1="54" y1="96.1" x2="422" y2="96.1" stroke="#eef0f2" stroke-width="1"/><text x="46" y="100.1" text-anchor="end" font-family="-apple-system,Segoe UI,Helvetica,Arial,sans-serif" font-size="11" fill="#222222">0.75</text><line x1="54" y1="40.0" x2="422" y2="40.0" stroke="#eef0f2" stroke-width="1"/><text x="46" y="44.0" text-anchor="end" font-family="-apple-system,Segoe UI,Helvetica,Arial,sans-serif" font-size="11" fill="#222222">1</text><text x="238" y="394" text-anchor="middle" font-family="-apple-system,Segoe UI,Helvetica,Arial,sans-serif" font-size="12" fill="#222222">ε_coast  (geometry-only prediction)</text><text x="14" y="197" text-anchor="middle" font-family="-apple-system,Segoe UI,Helvetica,Arial,sans-serif" font-size="12" fill="#222222" transform="rotate(-90 14 197)">ε_bal  (power-measured)</text><path d="M54.0,264.3 L422.0,40.0" fill="none" stroke="#9aa0a6" stroke-width="1.2" stroke-dasharray="4 3"/><path d="M101.8,264.3 L422.0,69.2" fill="none" stroke="#009E73" stroke-width="2.0"/><circle cx="136.0" cy="254.1" r="7.3" fill="#D55E00" fill-opacity="0.55" stroke="#fff" stroke-width="0.8"/><circle cx="147.3" cy="246.5" r="7.7" fill="#D55E00" fill-opacity="0.55" stroke="#fff" stroke-width="0.8"/><circle cx="168.3" cy="254.4" r="6.2" fill="#D55E00" fill-opacity="0.55" stroke="#fff" stroke-width="0.8"/><circle cx="227.9" cy="212.0" r="7.3" fill="#9aa0a6" fill-opacity="0.3" stroke="none" stroke-width="0.8"/><circle cx="232.0" cy="210.9" r="6.6" fill="#9aa0a6" fill-opacity="0.3" stroke="none" stroke-width="0.8"/><circle cx="275.2" cy="213.8" r="6.3" fill="#9aa0a6" fill-opacity="0.3" stroke="none" stroke-width="0.8"/><circle cx="224.4" cy="200.5" r="6.2" fill="#D55E00" fill-opacity="0.55" stroke="#fff" stroke-width="0.8"/><circle cx="246.1" cy="235.7" r="6.8" fill="#9aa0a6" fill-opacity="0.3" stroke="none" stroke-width="0.8"/><circle cx="270.3" cy="194.5" r="6.0" fill="#9aa0a6" fill-opacity="0.3" stroke="none" stroke-width="0.8"/><circle cx="363.8" cy="241.3" r="4.5" fill="#9aa0a6" fill-opacity="0.3" stroke="none" stroke-width="0.8"/><circle cx="315.1" cy="170.4" r="4.7" fill="#9aa0a6" fill-opacity="0.3" stroke="none" stroke-width="0.8"/><circle cx="206.7" cy="226.1" r="7.0" fill="#D55E00" fill-opacity="0.55" stroke="#fff" stroke-width="0.8"/><circle cx="241.1" cy="206.9" r="5.4" fill="#D55E00" fill-opacity="0.55" stroke="#fff" stroke-width="0.8"/><circle cx="302.1" cy="195.2" r="6.0" fill="#9aa0a6" fill-opacity="0.3" stroke="none" stroke-width="0.8"/><circle cx="252.9" cy="192.3" r="6.1" fill="#9aa0a6" fill-opacity="0.3" stroke="none" stroke-width="0.8"/><circle cx="392.7" cy="261.8" r="5.0" fill="#9aa0a6" fill-opacity="0.3" stroke="none" stroke-width="0.8"/><circle cx="375.6" cy="211.5" r="4.5" fill="#9aa0a6" fill-opacity="0.3" stroke="none" stroke-width="0.8"/><circle cx="213.0" cy="294.2" r="6.0" fill="#9aa0a6" fill-opacity="0.3" stroke="none" stroke-width="0.8"/><circle cx="324.2" cy="203.5" r="4.5" fill="#9aa0a6" fill-opacity="0.3" stroke="none" stroke-width="0.8"/><circle cx="137.5" cy="269.5" r="10.0" fill="#D55E00" fill-opacity="0.55" stroke="#fff" stroke-width="0.8"/><circle cx="202.8" cy="202.1" r="7.2" fill="#D55E00" fill-opacity="0.55" stroke="#fff" stroke-width="0.8"/><circle cx="188.1" cy="208.0" r="6.3" fill="#D55E00" fill-opacity="0.55" stroke="#fff" stroke-width="0.8"/><circle cx="248.0" cy="187.3" r="6.0" fill="#9aa0a6" fill-opacity="0.3" stroke="none" stroke-width="0.8"/><circle cx="195.2" cy="207.3" r="6.3" fill="#D55E00" fill-opacity="0.55" stroke="#fff" stroke-width="0.8"/><circle cx="357.2" cy="169.4" r="4.5" fill="#9aa0a6" fill-opacity="0.3" stroke="none" stroke-width="0.8"/><circle cx="215.4" cy="193.9" r="6.5" fill="#D55E00" fill-opacity="0.55" stroke="#fff" stroke-width="0.8"/><circle cx="175.5" cy="224.5" r="6.0" fill="#D55E00" fill-opacity="0.55" stroke="#fff" stroke-width="0.8"/><circle cx="265.8" cy="171.2" r="5.9" fill="#9aa0a6" fill-opacity="0.3" stroke="none" stroke-width="0.8"/><circle cx="223.0" cy="158.0" r="5.9" fill="#D55E00" fill-opacity="0.55" stroke="#fff" stroke-width="0.8"/><circle cx="251.9" cy="168.1" r="8.0" fill="#9aa0a6" fill-opacity="0.3" stroke="none" stroke-width="0.8"/><circle cx="235.6" cy="176.3" r="7.7" fill="#D55E00" fill-opacity="0.55" stroke="#fff" stroke-width="0.8"/><circle cx="193.1" cy="187.8" r="6.2" fill="#D55E00" fill-opacity="0.55" stroke="#fff" stroke-width="0.8"/><circle cx="159.2" cy="203.4" r="5.6" fill="#D55E00" fill-opacity="0.55" stroke="#fff" stroke-width="0.8"/><circle cx="235.5" cy="179.8" r="7.2" fill="#D55E00" fill-opacity="0.55" stroke="#fff" stroke-width="0.8"/><circle cx="337.3" cy="103.8" r="5.4" fill="#9aa0a6" fill-opacity="0.3" stroke="none" stroke-width="0.8"/><circle cx="212.1" cy="185.7" r="7.0" fill="#D55E00" fill-opacity="0.55" stroke="#fff" stroke-width="0.8"/><circle cx="289.2" cy="131.0" r="5.9" fill="#9aa0a6" fill-opacity="0.3" stroke="none" stroke-width="0.8"/><circle cx="184.2" cy="193.2" r="7.6" fill="#D55E00" fill-opacity="0.55" stroke="#fff" stroke-width="0.8"/><circle cx="140.4" cy="217.3" r="5.6" fill="#D55E00" fill-opacity="0.55" stroke="#fff" stroke-width="0.8"/><circle cx="226.4" cy="184.6" r="7.3" fill="#9aa0a6" fill-opacity="0.3" stroke="none" stroke-width="0.8"/><circle cx="220.9" cy="188.1" r="6.2" fill="#D55E00" fill-opacity="0.55" stroke="#fff" stroke-width="0.8"/><circle cx="236.7" cy="176.5" r="6.6" fill="#9aa0a6" fill-opacity="0.3" stroke="none" stroke-width="0.8"/><circle cx="216.6" cy="187.8" r="7.7" fill="#D55E00" fill-opacity="0.55" stroke="#fff" stroke-width="0.8"/><circle cx="228.0" cy="190.5" r="8.2" fill="#9aa0a6" fill-opacity="0.3" stroke="none" stroke-width="0.8"/><text x="412" y="58" text-anchor="end" font-family="-apple-system,Segoe UI,Helvetica,Arial,sans-serif" font-size="11" fill="#009E73">ε = ε_coast − 0.13</text><rect x="66" y="305" width="12" height="12" rx="2" fill="#D55E00"/><text x="84" y="315" font-family="-apple-system,Segoe UI,Helvetica,Arial,sans-serif" font-size="11" fill="#222222">real descents (s̄ ≥ 3%)</text><rect x="66" y="323" width="12" height="12" rx="2" fill="#9aa0a6"/><text x="84" y="333" font-family="-apple-system,Segoe UI,Helvetica,Arial,sans-serif" font-size="11" fill="#222222">gentle (near-zero descent kJ)</text><text x="66" y="350" font-family="-apple-system,Segoe UI,Helvetica,Arial,sans-serif" font-size="10" fill="#9aa0a6">point area ∝ descent energy β·H₋</text></svg>
