<svg xmlns="http://www.w3.org/2000/svg" viewBox="0 0 440 340" width="440" height="340" font-size="12"><rect width="440" height="340" fill="#fff"/><rect x="54" y="40" width="368" height="254" fill="#fff" stroke="#9aa0a6" stroke-width="1"/><text x="220" y="16" text-anchor="middle" font-family="-apple-system,Segoe UI,Helvetica,Arial,sans-serif" font-size="13" font-weight="600" fill="#222222">Censo ε-sweep — 62 urban rides (transfer test)</text><line x1="54.0" y1="40" x2="54.0" y2="294" stroke="#eef0f2" stroke-width="1"/><text x="54.0" y="310" text-anchor="middle" font-family="-apple-system,Segoe UI,Helvetica,Arial,sans-serif" font-size="11" fill="#222222">0</text><line x1="127.6" y1="40" x2="127.6" y2="294" stroke="#eef0f2" stroke-width="1"/><text x="127.6" y="310" text-anchor="middle" font-family="-apple-system,Segoe UI,Helvetica,Arial,sans-serif" font-size="11" fill="#222222">0.05</text><line x1="201.2" y1="40" x2="201.2" y2="294" stroke="#eef0f2" stroke-width="1"/><text x="201.2" y="310" text-anchor="middle" font-family="-apple-system,Segoe UI,Helvetica,Arial,sans-serif" font-size="11" fill="#222222">0.1</text><line x1="274.8" y1="40" x2="274.8" y2="294" stroke="#eef0f2" stroke-width="1"/><text x="274.8" y="310" text-anchor="middle" font-family="-apple-system,Segoe UI,Helvetica,Arial,sans-serif" font-size="11" fill="#222222">0.15</text><line x1="348.4" y1="40" x2="348.4" y2="294" stroke="#eef0f2" stroke-width="1"/><text x="348.4" y="310" text-anchor="middle" font-family="-apple-system,Segoe UI,Helvetica,Arial,sans-serif" font-size="11" fill="#222222">0.2</text><line x1="422.0" y1="40" x2="422.0" y2="294" stroke="#eef0f2" stroke-width="1"/><text x="422.0" y="310" text-anchor="middle" font-family="-apple-system,Segoe UI,Helvetica,Arial,sans-serif" font-size="11" fill="#222222">0.25</text><line x1="54" y1="282.5" x2="422" y2="282.5" stroke="#eef0f2" stroke-width="1"/><text x="46" y="286.5" text-anchor="end" font-family="-apple-system,Segoe UI,Helvetica,Arial,sans-serif" font-size="11" fill="#222222">-5</text><line x1="54" y1="224.7" x2="422" y2="224.7" stroke="#eef0f2" stroke-width="1"/><text x="46" y="228.7" text-anchor="end" font-family="-apple-system,Segoe UI,Helvetica,Arial,sans-serif" font-size="11" fill="#222222">0</text><line x1="54" y1="167.0" x2="422" y2="167.0" stroke="#eef0f2" stroke-width="1"/><text x="46" y="171.0" text-anchor="end" font-family="-apple-system,Segoe UI,Helvetica,Arial,sans-serif" font-size="11" fill="#222222">5</text><line x1="54" y1="109.3" x2="422" y2="109.3" stroke="#eef0f2" stroke-width="1"/><text x="46" y="113.3" text-anchor="end" font-family="-apple-system,Segoe UI,Helvetica,Arial,sans-serif" font-size="11" fill="#222222">10</text><line x1="54" y1="51.5" x2="422" y2="51.5" stroke="#eef0f2" stroke-width="1"/><text x="46" y="55.5" text-anchor="end" font-family="-apple-system,Segoe UI,Helvetica,Arial,sans-serif" font-size="11" fill="#222222">15</text><text x="238" y="334" text-anchor="middle" font-family="-apple-system,Segoe UI,Helvetica,Arial,sans-serif" font-size="12" fill="#222222">descent-recovery factor ε</text><text x="14" y="167" text-anchor="middle" font-family="-apple-system,Segoe UI,Helvetica,Arial,sans-serif" font-size="12" fill="#222222" transform="rotate(-90 14 167)">median Δ%  (model − measured)</text><path d="M54.0,224.7 L422.0,224.7" fill="none" stroke="#9aa0a6" stroke-width="1.0" stroke-dasharray="4 3"/><path d="M54.0,139.4 L127.6,163.1 L201.2,185.1 L274.8,209.7 L348.4,233.6 L422.0,259.8" fill="none" stroke="#0072B2" stroke-width="2.2" class="s0"/><path d="M54.0,103.0 L127.6,134.9 L201.2,164.3 L274.8,188.0 L348.4,211.6 L422.0,238.7" fill="none" stroke="#D55E00" stroke-width="2.2" class="s1"/><circle cx="54.0" cy="139.4" r="3.4" fill="#0072B2" fill-opacity="1.0" stroke="none" stroke-width="0.8" data-tip="smooth · ε = 0.00: median Δ% +7.4" class="s0"/><circle cx="127.6" cy="163.1" r="3.4" fill="#0072B2" fill-opacity="1.0" stroke="none" stroke-width="0.8" data-tip="smooth · ε = 0.05: median Δ% +5.3" class="s0"/><circle cx="201.2" cy="185.1" r="3.4" fill="#0072B2" fill-opacity="1.0" stroke="none" stroke-width="0.8" data-tip="smooth · ε = 0.10: median Δ% +3.4" class="s0"/><circle cx="274.8" cy="209.7" r="3.4" fill="#0072B2" fill-opacity="1.0" stroke="none" stroke-width="0.8" data-tip="smooth · ε = 0.15: median Δ% +1.3" class="s0"/><circle cx="348.4" cy="233.6" r="3.4" fill="#0072B2" fill-opacity="1.0" stroke="none" stroke-width="0.8" data-tip="smooth · ε = 0.20: median Δ% -0.8" class="s0"/><circle cx="422.0" cy="259.8" r="3.4" fill="#0072B2" fill-opacity="1.0" stroke="none" stroke-width="0.8" data-tip="smooth · ε = 0.25: median Δ% -3.0" class="s0"/><circle cx="54.0" cy="103.0" r="3.4" fill="#D55E00" fill-opacity="1.0" stroke="none" stroke-width="0.8" data-tip="poor-man's · ε = 0.00: median Δ% +10.5" class="s1"/><circle cx="127.6" cy="134.9" r="3.4" fill="#D55E00" fill-opacity="1.0" stroke="none" stroke-width="0.8" data-tip="poor-man's · ε = 0.05: median Δ% +7.8" class="s1"/><circle cx="201.2" cy="164.3" r="3.4" fill="#D55E00" fill-opacity="1.0" stroke="none" stroke-width="0.8" data-tip="poor-man's · ε = 0.10: median Δ% +5.2" class="s1"/><circle cx="274.8" cy="188.0" r="3.4" fill="#D55E00" fill-opacity="1.0" stroke="none" stroke-width="0.8" data-tip="poor-man's · ε = 0.15: median Δ% +3.2" class="s1"/><circle cx="348.4" cy="211.6" r="3.4" fill="#D55E00" fill-opacity="1.0" stroke="none" stroke-width="0.8" data-tip="poor-man's · ε = 0.20: median Δ% +1.1" class="s1"/><circle cx="422.0" cy="238.7" r="3.4" fill="#D55E00" fill-opacity="1.0" stroke="none" stroke-width="0.8" data-tip="poor-man's · ε = 0.25: median Δ% -1.2" class="s1"/><line x1="348.4" y1="40.0" x2="348.4" y2="294.0" stroke="#009E73" stroke-width="1.4" stroke-dasharray="3 3"/><text x="342.4" y="54" text-anchor="end" font-family="-apple-system,Segoe UI,Helvetica,Arial,sans-serif" font-size="11" fill="#009E73">ε ≈ 0.20 optimum</text><g class="lg" data-series="s0"><rect x="66" y="251" width="12" height="12" rx="2" fill="#0072B2"/><text x="84" y="261" font-family="-apple-system,Segoe UI,Helvetica,Arial,sans-serif" font-size="11" fill="#222222">smooth approx</text></g><g class="lg" data-series="s1"><rect x="66" y="269" width="12" height="12" rx="2" fill="#D55E00"/><text x="84" y="279" font-family="-apple-system,Segoe UI,Helvetica,Arial,sans-serif" font-size="11" fill="#222222">poor-man's scalar</text></g></svg>
