<svg xmlns="http://www.w3.org/2000/svg" viewBox="0 0 440 400" width="440" height="400" font-size="12"><rect width="440" height="400" fill="#fff"/><rect x="54" y="40" width="368" height="314" fill="#fff" stroke="#9aa0a6" stroke-width="1"/><text x="220" y="16" text-anchor="middle" font-family="-apple-system,Segoe UI,Helvetica,Arial,sans-serif" font-size="13" font-weight="600" fill="#222222">Third rider JAAM — fits the 21 real descents, misses the gentle bulk</text><line x1="54.0" y1="40" x2="54.0" y2="354" stroke="#eef0f2" stroke-width="1"/><text x="54.0" y="370" text-anchor="middle" font-family="-apple-system,Segoe UI,Helvetica,Arial,sans-serif" font-size="11" fill="#222222">0</text><line x1="146.0" y1="40" x2="146.0" y2="354" stroke="#eef0f2" stroke-width="1"/><text x="146.0" y="370" text-anchor="middle" font-family="-apple-system,Segoe UI,Helvetica,Arial,sans-serif" font-size="11" fill="#222222">0.25</text><line x1="238.0" y1="40" x2="238.0" y2="354" stroke="#eef0f2" stroke-width="1"/><text x="238.0" y="370" text-anchor="middle" font-family="-apple-system,Segoe UI,Helvetica,Arial,sans-serif" font-size="11" fill="#222222">0.5</text><line x1="330.0" y1="40" x2="330.0" y2="354" stroke="#eef0f2" stroke-width="1"/><text x="330.0" y="370" text-anchor="middle" font-family="-apple-system,Segoe UI,Helvetica,Arial,sans-serif" font-size="11" fill="#222222">0.75</text><line x1="422.0" y1="40" x2="422.0" y2="354" stroke="#eef0f2" stroke-width="1"/><text x="422.0" y="370" text-anchor="middle" font-family="-apple-system,Segoe UI,Helvetica,Arial,sans-serif" font-size="11" fill="#222222">1</text><line x1="54" y1="324.6" x2="422" y2="324.6" stroke="#eef0f2" stroke-width="1"/><text x="46" y="328.6" text-anchor="end" font-family="-apple-system,Segoe UI,Helvetica,Arial,sans-serif" font-size="11" fill="#222222">-0.25</text><line x1="54" y1="275.5" x2="422" y2="275.5" stroke="#eef0f2" stroke-width="1"/><text x="46" y="279.5" text-anchor="end" font-family="-apple-system,Segoe UI,Helvetica,Arial,sans-serif" font-size="11" fill="#222222">0</text><line x1="54" y1="226.4" x2="422" y2="226.4" stroke="#eef0f2" stroke-width="1"/><text x="46" y="230.4" text-anchor="end" font-family="-apple-system,Segoe UI,Helvetica,Arial,sans-serif" font-size="11" fill="#222222">0.25</text><line x1="54" y1="177.4" x2="422" y2="177.4" stroke="#eef0f2" stroke-width="1"/><text x="46" y="181.4" text-anchor="end" font-family="-apple-system,Segoe UI,Helvetica,Arial,sans-serif" font-size="11" fill="#222222">0.5</text><line x1="54" y1="128.3" x2="422" y2="128.3" stroke="#eef0f2" stroke-width="1"/><text x="46" y="132.3" text-anchor="end" font-family="-apple-system,Segoe UI,Helvetica,Arial,sans-serif" font-size="11" fill="#222222">0.75</text><line x1="54" y1="79.3" x2="422" y2="79.3" stroke="#eef0f2" stroke-width="1"/><text x="46" y="83.3" text-anchor="end" font-family="-apple-system,Segoe UI,Helvetica,Arial,sans-serif" font-size="11" fill="#222222">1</text><text x="238" y="394" text-anchor="middle" font-family="-apple-system,Segoe UI,Helvetica,Arial,sans-serif" font-size="12" fill="#222222">ε_coast  (geometry-only prediction)</text><text x="14" y="197" text-anchor="middle" font-family="-apple-system,Segoe UI,Helvetica,Arial,sans-serif" font-size="12" fill="#222222" transform="rotate(-90 14 197)">ε_bal  (power-measured, rider 3)</text><path d="M54.0,275.5 L422.0,79.3" fill="none" stroke="#9aa0a6" stroke-width="1.2" stroke-dasharray="4 3"/><path d="M101.8,275.5 L422.0,104.8" fill="none" stroke="#009E73" stroke-width="2.0"/><circle cx="320.8" cy="277.5" r="2.8" fill="#9aa0a6" fill-opacity="0.2" stroke="none" stroke-width="0.8"/><circle cx="257.9" cy="251.8" r="3.6" fill="#9aa0a6" fill-opacity="0.2" stroke="none" stroke-width="0.8"/><circle cx="326.7" cy="230.8" r="3.0" fill="#9aa0a6" fill-opacity="0.2" stroke="none" stroke-width="0.8"/><circle cx="287.7" cy="254.3" r="2.8" fill="#9aa0a6" fill-opacity="0.2" stroke="none" stroke-width="0.8"/><circle cx="358.7" cy="231.3" r="2.9" fill="#9aa0a6" fill-opacity="0.2" stroke="none" stroke-width="0.8"/><circle cx="409.5" cy="267.3" r="3.1" fill="#9aa0a6" fill-opacity="0.2" stroke="none" stroke-width="0.8"/><circle cx="257.9" cy="205.4" r="3.0" fill="#D55E00" fill-opacity="0.55" stroke="none" stroke-width="0.8"/><circle cx="344.0" cy="218.8" r="3.0" fill="#9aa0a6" fill-opacity="0.2" stroke="none" stroke-width="0.8"/><circle cx="317.9" cy="272.6" r="2.8" fill="#9aa0a6" fill-opacity="0.2" stroke="none" stroke-width="0.8"/><circle cx="351.7" cy="214.7" r="2.9" fill="#9aa0a6" fill-opacity="0.2" stroke="none" stroke-width="0.8"/><circle cx="313.8" cy="250.2" r="2.8" fill="#9aa0a6" fill-opacity="0.2" stroke="none" stroke-width="0.8"/><circle cx="291.7" cy="261.4" r="3.2" fill="#9aa0a6" fill-opacity="0.2" stroke="none" stroke-width="0.8"/><circle cx="316.4" cy="259.4" r="3.0" fill="#9aa0a6" fill-opacity="0.2" stroke="none" stroke-width="0.8"/><circle cx="323.0" cy="254.5" r="2.8" fill="#9aa0a6" fill-opacity="0.2" stroke="none" stroke-width="0.8"/><circle cx="344.7" cy="252.9" r="2.9" fill="#9aa0a6" fill-opacity="0.2" stroke="none" stroke-width="0.8"/><circle cx="224.0" cy="271.0" r="3.4" fill="#D55E00" fill-opacity="0.55" stroke="none" stroke-width="0.8"/><circle cx="326.3" cy="260.6" r="3.2" fill="#9aa0a6" fill-opacity="0.2" stroke="none" stroke-width="0.8"/><circle cx="367.2" cy="250.6" r="2.9" fill="#9aa0a6" fill-opacity="0.2" stroke="none" stroke-width="0.8"/><circle cx="295.0" cy="284.9" r="2.8" fill="#9aa0a6" fill-opacity="0.2" stroke="none" stroke-width="0.8"/><circle cx="290.6" cy="286.1" r="2.8" fill="#9aa0a6" fill-opacity="0.2" stroke="none" stroke-width="0.8"/><circle cx="305.3" cy="236.6" r="3.1" fill="#9aa0a6" fill-opacity="0.2" stroke="none" stroke-width="0.8"/><circle cx="334.4" cy="221.5" r="2.9" fill="#9aa0a6" fill-opacity="0.2" stroke="none" stroke-width="0.8"/><circle cx="320.4" cy="247.6" r="2.8" fill="#9aa0a6" fill-opacity="0.2" stroke="none" stroke-width="0.8"/><circle cx="337.7" cy="230.2" r="3.0" fill="#9aa0a6" fill-opacity="0.2" stroke="none" stroke-width="0.8"/><circle cx="285.8" cy="261.8" r="2.8" fill="#9aa0a6" fill-opacity="0.2" stroke="none" stroke-width="0.8"/><circle cx="335.9" cy="216.8" r="3.0" fill="#9aa0a6" fill-opacity="0.2" stroke="none" stroke-width="0.8"/><circle cx="312.7" cy="217.6" r="2.7" fill="#9aa0a6" fill-opacity="0.2" stroke="none" stroke-width="0.8"/><circle cx="341.0" cy="191.1" r="2.9" fill="#9aa0a6" fill-opacity="0.2" stroke="none" stroke-width="0.8"/><circle cx="330.0" cy="253.5" r="2.8" fill="#9aa0a6" fill-opacity="0.2" stroke="none" stroke-width="0.8"/><circle cx="319.0" cy="266.1" r="2.8" fill="#9aa0a6" fill-opacity="0.2" stroke="none" stroke-width="0.8"/><circle cx="296.1" cy="226.6" r="2.7" fill="#9aa0a6" fill-opacity="0.2" stroke="none" stroke-width="0.8"/><circle cx="324.1" cy="260.8" r="3.0" fill="#9aa0a6" fill-opacity="0.2" stroke="none" stroke-width="0.8"/><circle cx="292.8" cy="241.4" r="3.1" fill="#9aa0a6" fill-opacity="0.2" stroke="none" stroke-width="0.8"/><circle cx="238.4" cy="240.2" r="3.5" fill="#9aa0a6" fill-opacity="0.2" stroke="none" stroke-width="0.8"/><circle cx="279.6" cy="240.8" r="2.8" fill="#9aa0a6" fill-opacity="0.2" stroke="none" stroke-width="0.8"/><circle cx="311.2" cy="224.1" r="2.8" fill="#9aa0a6" fill-opacity="0.2" stroke="none" stroke-width="0.8"/><circle cx="322.6" cy="267.3" r="3.0" fill="#9aa0a6" fill-opacity="0.2" stroke="none" stroke-width="0.8"/><circle cx="194.6" cy="214.1" r="4.9" fill="#D55E00" fill-opacity="0.55" stroke="none" stroke-width="0.8"/><circle cx="228.4" cy="193.9" r="2.9" fill="#9aa0a6" fill-opacity="0.2" stroke="none" stroke-width="0.8"/><circle cx="332.6" cy="213.3" r="2.8" fill="#9aa0a6" fill-opacity="0.2" stroke="none" stroke-width="0.8"/><circle cx="310.5" cy="254.3" r="2.8" fill="#9aa0a6" fill-opacity="0.2" stroke="none" stroke-width="0.8"/><circle cx="331.1" cy="232.5" r="3.0" fill="#9aa0a6" fill-opacity="0.2" stroke="none" stroke-width="0.8"/><circle cx="254.6" cy="216.0" r="3.9" fill="#9aa0a6" fill-opacity="0.2" stroke="none" stroke-width="0.8"/><circle cx="349.1" cy="262.2" r="2.8" fill="#9aa0a6" fill-opacity="0.2" stroke="none" stroke-width="0.8"/><circle cx="349.1" cy="275.3" r="3.0" fill="#9aa0a6" fill-opacity="0.2" stroke="none" stroke-width="0.8"/><circle cx="342.1" cy="259.0" r="2.9" fill="#9aa0a6" fill-opacity="0.2" stroke="none" stroke-width="0.8"/><circle cx="370.5" cy="280.4" r="2.9" fill="#9aa0a6" fill-opacity="0.2" stroke="none" stroke-width="0.8"/><circle cx="267.8" cy="197.6" r="4.1" fill="#9aa0a6" fill-opacity="0.2" stroke="none" stroke-width="0.8"/><circle cx="328.5" cy="222.7" r="2.9" fill="#9aa0a6" fill-opacity="0.2" stroke="none" stroke-width="0.8"/><circle cx="289.5" cy="261.0" r="2.7" fill="#9aa0a6" fill-opacity="0.2" stroke="none" stroke-width="0.8"/><circle cx="199.4" cy="215.8" r="4.5" fill="#D55E00" fill-opacity="0.55" stroke="none" stroke-width="0.8"/><circle cx="330.7" cy="251.2" r="3.0" fill="#9aa0a6" fill-opacity="0.2" stroke="none" stroke-width="0.8"/><circle cx="328.9" cy="252.9" r="2.8" fill="#9aa0a6" fill-opacity="0.2" stroke="none" stroke-width="0.8"/><circle cx="334.8" cy="230.4" r="2.8" fill="#9aa0a6" fill-opacity="0.2" stroke="none" stroke-width="0.8"/><circle cx="323.0" cy="247.8" r="3.0" fill="#9aa0a6" fill-opacity="0.2" stroke="none" stroke-width="0.8"/><circle cx="352.8" cy="214.5" r="3.0" fill="#9aa0a6" fill-opacity="0.2" stroke="none" stroke-width="0.8"/><circle cx="300.9" cy="203.9" r="3.2" fill="#9aa0a6" fill-opacity="0.2" stroke="none" stroke-width="0.8"/><circle cx="319.3" cy="224.5" r="2.9" fill="#9aa0a6" fill-opacity="0.2" stroke="none" stroke-width="0.8"/><circle cx="303.9" cy="141.9" r="2.9" fill="#9aa0a6" fill-opacity="0.2" stroke="none" stroke-width="0.8"/><circle cx="207.8" cy="217.6" r="7.7" fill="#D55E00" fill-opacity="0.55" stroke="none" stroke-width="0.8"/><circle cx="333.7" cy="252.5" r="3.2" fill="#9aa0a6" fill-opacity="0.2" stroke="none" stroke-width="0.8"/><circle cx="344.7" cy="235.9" r="3.2" fill="#9aa0a6" fill-opacity="0.2" stroke="none" stroke-width="0.8"/><circle cx="332.9" cy="207.8" r="2.8" fill="#9aa0a6" fill-opacity="0.2" stroke="none" stroke-width="0.8"/><circle cx="284.4" cy="214.9" r="2.7" fill="#9aa0a6" fill-opacity="0.2" stroke="none" stroke-width="0.8"/><circle cx="235.1" cy="220.6" r="5.3" fill="#9aa0a6" fill-opacity="0.2" stroke="none" stroke-width="0.8"/><circle cx="339.9" cy="257.4" r="2.9" fill="#9aa0a6" fill-opacity="0.2" stroke="none" stroke-width="0.8"/><circle cx="335.9" cy="219.0" r="3.0" fill="#9aa0a6" fill-opacity="0.2" stroke="none" stroke-width="0.8"/><circle cx="330.4" cy="257.8" r="2.9" fill="#9aa0a6" fill-opacity="0.2" stroke="none" stroke-width="0.8"/><circle cx="307.9" cy="218.4" r="2.9" fill="#9aa0a6" fill-opacity="0.2" stroke="none" stroke-width="0.8"/><circle cx="322.3" cy="280.4" r="3.3" fill="#9aa0a6" fill-opacity="0.2" stroke="none" stroke-width="0.8"/><circle cx="307.9" cy="252.1" r="3.1" fill="#9aa0a6" fill-opacity="0.2" stroke="none" stroke-width="0.8"/><circle cx="229.5" cy="228.0" r="4.4" fill="#D55E00" fill-opacity="0.55" stroke="none" stroke-width="0.8"/><circle cx="320.8" cy="221.5" r="2.8" fill="#9aa0a6" fill-opacity="0.2" stroke="none" stroke-width="0.8"/><circle cx="305.3" cy="281.6" r="3.1" fill="#9aa0a6" fill-opacity="0.2" stroke="none" stroke-width="0.8"/><circle cx="322.3" cy="238.8" r="3.0" fill="#9aa0a6" fill-opacity="0.2" stroke="none" stroke-width="0.8"/><circle cx="220.3" cy="238.8" r="4.9" fill="#D55E00" fill-opacity="0.55" stroke="none" stroke-width="0.8"/><circle cx="304.2" cy="221.9" r="2.9" fill="#9aa0a6" fill-opacity="0.2" stroke="none" stroke-width="0.8"/><circle cx="304.2" cy="237.4" r="3.0" fill="#9aa0a6" fill-opacity="0.2" stroke="none" stroke-width="0.8"/><circle cx="322.6" cy="232.5" r="2.9" fill="#9aa0a6" fill-opacity="0.2" stroke="none" stroke-width="0.8"/><circle cx="301.7" cy="245.7" r="3.1" fill="#9aa0a6" fill-opacity="0.2" stroke="none" stroke-width="0.8"/><circle cx="302.0" cy="254.9" r="3.4" fill="#9aa0a6" fill-opacity="0.2" stroke="none" stroke-width="0.8"/><circle cx="169.2" cy="235.3" r="3.3" fill="#D55E00" fill-opacity="0.55" stroke="none" stroke-width="0.8"/><circle cx="302.0" cy="237.8" r="2.8" fill="#9aa0a6" fill-opacity="0.2" stroke="none" stroke-width="0.8"/><circle cx="348.0" cy="247.2" r="3.0" fill="#9aa0a6" fill-opacity="0.2" stroke="none" stroke-width="0.8"/><circle cx="344.0" cy="266.1" r="3.1" fill="#9aa0a6" fill-opacity="0.2" stroke="none" stroke-width="0.8"/><circle cx="310.1" cy="256.1" r="3.2" fill="#9aa0a6" fill-opacity="0.2" stroke="none" stroke-width="0.8"/><circle cx="330.4" cy="205.2" r="3.1" fill="#9aa0a6" fill-opacity="0.2" stroke="none" stroke-width="0.8"/><circle cx="347.3" cy="216.2" r="2.9" fill="#9aa0a6" fill-opacity="0.2" stroke="none" stroke-width="0.8"/><circle cx="301.7" cy="277.3" r="2.9" fill="#9aa0a6" fill-opacity="0.2" stroke="none" stroke-width="0.8"/><circle cx="313.8" cy="204.7" r="2.9" fill="#9aa0a6" fill-opacity="0.2" stroke="none" stroke-width="0.8"/><circle cx="340.3" cy="255.3" r="2.9" fill="#9aa0a6" fill-opacity="0.2" stroke="none" stroke-width="0.8"/><circle cx="312.0" cy="276.9" r="3.5" fill="#9aa0a6" fill-opacity="0.2" stroke="none" stroke-width="0.8"/><circle cx="248.7" cy="211.1" r="3.3" fill="#D55E00" fill-opacity="0.55" stroke="none" stroke-width="0.8"/><circle cx="252.0" cy="228.0" r="3.6" fill="#9aa0a6" fill-opacity="0.2" stroke="none" stroke-width="0.8"/><circle cx="nan" cy="nan" r="nan" fill="#9aa0a6" fill-opacity="0.2" stroke="none" stroke-width="0.8"/><circle cx="nan" cy="nan" r="nan" fill="#9aa0a6" fill-opacity="0.2" stroke="none" stroke-width="0.8"/><circle cx="nan" cy="nan" r="nan" fill="#9aa0a6" fill-opacity="0.2" stroke="none" stroke-width="0.8"/><circle cx="nan" cy="nan" r="nan" fill="#9aa0a6" fill-opacity="0.2" stroke="none" stroke-width="0.8"/><circle cx="306.8" cy="263.1" r="3.2" fill="#9aa0a6" fill-opacity="0.2" stroke="none" stroke-width="0.8"/><circle cx="285.1" cy="260.0" r="3.2" fill="#9aa0a6" fill-opacity="0.2" stroke="none" stroke-width="0.8"/><circle cx="312.3" cy="202.3" r="3.0" fill="#9aa0a6" fill-opacity="0.2" stroke="none" stroke-width="0.8"/><circle cx="225.9" cy="206.2" r="5.6" fill="#D55E00" fill-opacity="0.55" stroke="none" stroke-width="0.8"/><circle cx="309.8" cy="205.6" r="2.9" fill="#9aa0a6" fill-opacity="0.2" stroke="none" stroke-width="0.8"/><circle cx="325.6" cy="234.9" r="3.0" fill="#9aa0a6" fill-opacity="0.2" stroke="none" stroke-width="0.8"/><circle cx="347.7" cy="237.0" r="3.0" fill="#9aa0a6" fill-opacity="0.2" stroke="none" stroke-width="0.8"/><circle cx="351.0" cy="273.7" r="3.2" fill="#9aa0a6" fill-opacity="0.2" stroke="none" stroke-width="0.8"/><circle cx="218.9" cy="209.2" r="4.0" fill="#D55E00" fill-opacity="0.55" stroke="none" stroke-width="0.8"/><circle cx="333.7" cy="296.7" r="2.9" fill="#9aa0a6" fill-opacity="0.2" stroke="none" stroke-width="0.8"/><circle cx="319.3" cy="223.5" r="3.0" fill="#9aa0a6" fill-opacity="0.2" stroke="none" stroke-width="0.8"/><circle cx="342.5" cy="256.5" r="2.9" fill="#9aa0a6" fill-opacity="0.2" stroke="none" stroke-width="0.8"/><circle cx="266.3" cy="257.6" r="3.1" fill="#9aa0a6" fill-opacity="0.2" stroke="none" stroke-width="0.8"/><circle cx="355.4" cy="238.2" r="3.4" fill="#9aa0a6" fill-opacity="0.2" stroke="none" stroke-width="0.8"/><circle cx="277.7" cy="237.8" r="2.9" fill="#9aa0a6" fill-opacity="0.2" stroke="none" stroke-width="0.8"/><circle cx="337.7" cy="270.0" r="2.8" fill="#9aa0a6" fill-opacity="0.2" stroke="none" stroke-width="0.8"/><circle cx="315.6" cy="203.9" r="2.9" fill="#9aa0a6" fill-opacity="0.2" stroke="none" stroke-width="0.8"/><circle cx="342.5" cy="220.0" r="2.8" fill="#9aa0a6" fill-opacity="0.2" stroke="none" stroke-width="0.8"/><circle cx="317.9" cy="261.4" r="3.0" fill="#9aa0a6" fill-opacity="0.2" stroke="none" stroke-width="0.8"/><circle cx="269.6" cy="207.0" r="3.8" fill="#9aa0a6" fill-opacity="0.2" stroke="none" stroke-width="0.8"/><circle cx="309.0" cy="224.5" r="2.9" fill="#9aa0a6" fill-opacity="0.2" stroke="none" stroke-width="0.8"/><circle cx="331.8" cy="247.8" r="2.8" fill="#9aa0a6" fill-opacity="0.2" stroke="none" stroke-width="0.8"/><circle cx="398.1" cy="307.9" r="2.5" fill="#9aa0a6" fill-opacity="0.2" stroke="none" stroke-width="0.8"/><circle cx="218.5" cy="211.3" r="4.1" fill="#D55E00" fill-opacity="0.55" stroke="none" stroke-width="0.8"/><circle cx="348.0" cy="191.1" r="2.9" fill="#9aa0a6" fill-opacity="0.2" stroke="none" stroke-width="0.8"/><circle cx="334.0" cy="275.9" r="2.8" fill="#9aa0a6" fill-opacity="0.2" stroke="none" stroke-width="0.8"/><circle cx="323.0" cy="231.7" r="3.0" fill="#9aa0a6" fill-opacity="0.2" stroke="none" stroke-width="0.8"/><circle cx="310.5" cy="225.3" r="2.9" fill="#9aa0a6" fill-opacity="0.2" stroke="none" stroke-width="0.8"/><circle cx="317.5" cy="244.1" r="3.0" fill="#9aa0a6" fill-opacity="0.2" stroke="none" stroke-width="0.8"/><circle cx="331.1" cy="231.0" r="2.9" fill="#9aa0a6" fill-opacity="0.2" stroke="none" stroke-width="0.8"/><circle cx="327.1" cy="205.0" r="2.9" fill="#9aa0a6" fill-opacity="0.2" stroke="none" stroke-width="0.8"/><circle cx="401.8" cy="326.7" r="2.6" fill="#9aa0a6" fill-opacity="0.2" stroke="none" stroke-width="0.8"/><circle cx="278.5" cy="223.7" r="2.9" fill="#9aa0a6" fill-opacity="0.2" stroke="none" stroke-width="0.8"/><circle cx="323.4" cy="261.8" r="2.8" fill="#9aa0a6" fill-opacity="0.2" stroke="none" stroke-width="0.8"/><circle cx="345.1" cy="257.4" r="3.1" fill="#9aa0a6" fill-opacity="0.2" stroke="none" stroke-width="0.8"/><circle cx="347.7" cy="228.0" r="3.0" fill="#9aa0a6" fill-opacity="0.2" stroke="none" stroke-width="0.8"/><circle cx="329.3" cy="276.9" r="2.8" fill="#9aa0a6" fill-opacity="0.2" stroke="none" stroke-width="0.8"/><circle cx="308.7" cy="209.0" r="2.9" fill="#9aa0a6" fill-opacity="0.2" stroke="none" stroke-width="0.8"/><circle cx="338.8" cy="215.3" r="2.8" fill="#9aa0a6" fill-opacity="0.2" stroke="none" stroke-width="0.8"/><circle cx="313.4" cy="241.7" r="3.0" fill="#9aa0a6" fill-opacity="0.2" stroke="none" stroke-width="0.8"/><circle cx="239.5" cy="201.1" r="3.4" fill="#9aa0a6" fill-opacity="0.2" stroke="none" stroke-width="0.8"/><circle cx="314.5" cy="213.5" r="2.8" fill="#9aa0a6" fill-opacity="0.2" stroke="none" stroke-width="0.8"/><circle cx="320.1" cy="272.0" r="2.8" fill="#9aa0a6" fill-opacity="0.2" stroke="none" stroke-width="0.8"/><circle cx="203.8" cy="215.1" r="4.9" fill="#D55E00" fill-opacity="0.55" stroke="none" stroke-width="0.8"/><circle cx="304.2" cy="237.2" r="2.9" fill="#9aa0a6" fill-opacity="0.2" stroke="none" stroke-width="0.8"/><circle cx="400.3" cy="287.3" r="2.6" fill="#9aa0a6" fill-opacity="0.2" stroke="none" stroke-width="0.8"/><circle cx="320.4" cy="256.7" r="2.8" fill="#9aa0a6" fill-opacity="0.2" stroke="none" stroke-width="0.8"/><circle cx="317.1" cy="260.8" r="3.0" fill="#9aa0a6" fill-opacity="0.2" stroke="none" stroke-width="0.8"/><circle cx="330.0" cy="222.3" r="2.9" fill="#9aa0a6" fill-opacity="0.2" stroke="none" stroke-width="0.8"/><circle cx="335.5" cy="217.4" r="2.8" fill="#9aa0a6" fill-opacity="0.2" stroke="none" stroke-width="0.8"/><circle cx="321.9" cy="220.2" r="2.9" fill="#9aa0a6" fill-opacity="0.2" stroke="none" stroke-width="0.8"/><circle cx="259.3" cy="239.2" r="2.9" fill="#9aa0a6" fill-opacity="0.2" stroke="none" stroke-width="0.8"/><circle cx="316.4" cy="265.1" r="3.0" fill="#9aa0a6" fill-opacity="0.2" stroke="none" stroke-width="0.8"/><circle cx="271.9" cy="191.5" r="3.4" fill="#9aa0a6" fill-opacity="0.2" stroke="none" stroke-width="0.8"/><circle cx="344.0" cy="260.2" r="3.2" fill="#9aa0a6" fill-opacity="0.2" stroke="none" stroke-width="0.8"/><circle cx="322.3" cy="262.5" r="2.8" fill="#9aa0a6" fill-opacity="0.2" stroke="none" stroke-width="0.8"/><circle cx="330.4" cy="213.7" r="2.9" fill="#9aa0a6" fill-opacity="0.2" stroke="none" stroke-width="0.8"/><circle cx="290.6" cy="202.9" r="2.7" fill="#9aa0a6" fill-opacity="0.2" stroke="none" stroke-width="0.8"/><circle cx="343.6" cy="276.9" r="3.0" fill="#9aa0a6" fill-opacity="0.2" stroke="none" stroke-width="0.8"/><circle cx="204.9" cy="226.0" r="4.1" fill="#D55E00" fill-opacity="0.55" stroke="none" stroke-width="0.8"/><circle cx="399.6" cy="229.8" r="2.5" fill="#9aa0a6" fill-opacity="0.2" stroke="none" stroke-width="0.8"/><circle cx="307.6" cy="221.7" r="2.9" fill="#9aa0a6" fill-opacity="0.2" stroke="none" stroke-width="0.8"/><circle cx="317.1" cy="251.9" r="2.8" fill="#9aa0a6" fill-opacity="0.2" stroke="none" stroke-width="0.8"/><circle cx="211.9" cy="226.8" r="5.5" fill="#D55E00" fill-opacity="0.55" stroke="none" stroke-width="0.8"/><circle cx="312.0" cy="269.2" r="2.8" fill="#9aa0a6" fill-opacity="0.2" stroke="none" stroke-width="0.8"/><circle cx="301.7" cy="233.9" r="2.8" fill="#9aa0a6" fill-opacity="0.2" stroke="none" stroke-width="0.8"/><circle cx="392.2" cy="323.8" r="2.5" fill="#9aa0a6" fill-opacity="0.2" stroke="none" stroke-width="0.8"/><circle cx="301.3" cy="264.7" r="3.1" fill="#9aa0a6" fill-opacity="0.2" stroke="none" stroke-width="0.8"/><circle cx="209.3" cy="202.7" r="4.8" fill="#D55E00" fill-opacity="0.55" stroke="none" stroke-width="0.8"/><circle cx="307.2" cy="231.9" r="2.9" fill="#9aa0a6" fill-opacity="0.2" stroke="none" stroke-width="0.8"/><circle cx="289.9" cy="205.8" r="2.8" fill="#9aa0a6" fill-opacity="0.2" stroke="none" stroke-width="0.8"/><circle cx="310.5" cy="246.8" r="2.9" fill="#9aa0a6" fill-opacity="0.2" stroke="none" stroke-width="0.8"/><circle cx="312.7" cy="224.3" r="2.7" fill="#9aa0a6" fill-opacity="0.2" stroke="none" stroke-width="0.8"/><circle cx="390.4" cy="326.7" r="2.5" fill="#9aa0a6" fill-opacity="0.2" stroke="none" stroke-width="0.8"/><circle cx="315.3" cy="259.4" r="3.0" fill="#9aa0a6" fill-opacity="0.2" stroke="none" stroke-width="0.8"/><circle cx="206.0" cy="217.4" r="3.8" fill="#D55E00" fill-opacity="0.55" stroke="none" stroke-width="0.8"/><circle cx="321.2" cy="228.0" r="2.7" fill="#9aa0a6" fill-opacity="0.2" stroke="none" stroke-width="0.8"/><circle cx="219.2" cy="200.1" r="5.0" fill="#D55E00" fill-opacity="0.55" stroke="none" stroke-width="0.8"/><circle cx="243.2" cy="188.8" r="5.0" fill="#D55E00" fill-opacity="0.55" stroke="none" stroke-width="0.8"/><circle cx="312.0" cy="177.4" r="2.8" fill="#9aa0a6" fill-opacity="0.2" stroke="none" stroke-width="0.8"/><circle cx="296.5" cy="214.1" r="2.7" fill="#9aa0a6" fill-opacity="0.2" stroke="none" stroke-width="0.8"/><circle cx="338.8" cy="244.9" r="3.0" fill="#9aa0a6" fill-opacity="0.2" stroke="none" stroke-width="0.8"/><circle cx="312.3" cy="235.1" r="2.9" fill="#9aa0a6" fill-opacity="0.2" stroke="none" stroke-width="0.8"/><circle cx="324.1" cy="249.4" r="3.1" fill="#9aa0a6" fill-opacity="0.2" stroke="none" stroke-width="0.8"/><circle cx="411.7" cy="236.1" r="3.1" fill="#9aa0a6" fill-opacity="0.2" stroke="none" stroke-width="0.8"/><circle cx="312.7" cy="232.7" r="2.9" fill="#9aa0a6" fill-opacity="0.2" stroke="none" stroke-width="0.8"/><circle cx="332.6" cy="311.2" r="2.9" fill="#9aa0a6" fill-opacity="0.2" stroke="none" stroke-width="0.8"/><circle cx="303.1" cy="265.7" r="2.9" fill="#9aa0a6" fill-opacity="0.2" stroke="none" stroke-width="0.8"/><circle cx="346.2" cy="282.0" r="2.9" fill="#9aa0a6" fill-opacity="0.2" stroke="none" stroke-width="0.8"/><circle cx="312.3" cy="249.6" r="3.0" fill="#9aa0a6" fill-opacity="0.2" stroke="none" stroke-width="0.8"/><circle cx="353.9" cy="230.0" r="3.1" fill="#9aa0a6" fill-opacity="0.2" stroke="none" stroke-width="0.8"/><circle cx="364.6" cy="270.6" r="3.0" fill="#9aa0a6" fill-opacity="0.2" stroke="none" stroke-width="0.8"/><circle cx="295.4" cy="257.8" r="3.0" fill="#9aa0a6" fill-opacity="0.2" stroke="none" stroke-width="0.8"/><circle cx="311.2" cy="239.6" r="3.0" fill="#9aa0a6" fill-opacity="0.2" stroke="none" stroke-width="0.8"/><circle cx="318.2" cy="287.9" r="3.0" fill="#9aa0a6" fill-opacity="0.2" stroke="none" stroke-width="0.8"/><circle cx="202.7" cy="221.7" r="5.3" fill="#D55E00" fill-opacity="0.55" stroke="none" stroke-width="0.8"/><circle cx="337.0" cy="241.5" r="3.0" fill="#9aa0a6" fill-opacity="0.2" stroke="none" stroke-width="0.8"/><circle cx="338.5" cy="295.9" r="3.0" fill="#9aa0a6" fill-opacity="0.2" stroke="none" stroke-width="0.8"/><circle cx="299.8" cy="272.0" r="3.1" fill="#9aa0a6" fill-opacity="0.2" stroke="none" stroke-width="0.8"/><circle cx="188.7" cy="218.2" r="3.8" fill="#D55E00" fill-opacity="0.55" stroke="none" stroke-width="0.8"/><circle cx="359.8" cy="222.5" r="3.0" fill="#9aa0a6" fill-opacity="0.2" stroke="none" stroke-width="0.8"/><circle cx="339.6" cy="257.4" r="2.9" fill="#9aa0a6" fill-opacity="0.2" stroke="none" stroke-width="0.8"/><circle cx="329.6" cy="244.9" r="3.0" fill="#9aa0a6" fill-opacity="0.2" stroke="none" stroke-width="0.8"/><circle cx="342.1" cy="247.2" r="3.0" fill="#9aa0a6" fill-opacity="0.2" stroke="none" stroke-width="0.8"/><circle cx="292.8" cy="203.3" r="2.8" fill="#9aa0a6" fill-opacity="0.2" stroke="none" stroke-width="0.8"/><circle cx="363.5" cy="234.5" r="3.2" fill="#9aa0a6" fill-opacity="0.2" stroke="none" stroke-width="0.8"/><circle cx="341.4" cy="239.6" r="3.2" fill="#9aa0a6" fill-opacity="0.2" stroke="none" stroke-width="0.8"/><circle cx="365.0" cy="267.3" r="3.0" fill="#9aa0a6" fill-opacity="0.2" stroke="none" stroke-width="0.8"/><circle cx="302.8" cy="271.0" r="2.9" fill="#9aa0a6" fill-opacity="0.2" stroke="none" stroke-width="0.8"/><circle cx="327.8" cy="231.7" r="2.9" fill="#9aa0a6" fill-opacity="0.2" stroke="none" stroke-width="0.8"/><circle cx="340.3" cy="248.4" r="2.8" fill="#9aa0a6" fill-opacity="0.2" stroke="none" stroke-width="0.8"/><circle cx="360.2" cy="308.3" r="3.0" fill="#9aa0a6" fill-opacity="0.2" stroke="none" stroke-width="0.8"/><circle cx="315.6" cy="291.8" r="3.0" fill="#9aa0a6" fill-opacity="0.2" stroke="none" stroke-width="0.8"/><circle cx="373.4" cy="217.2" r="3.1" fill="#9aa0a6" fill-opacity="0.2" stroke="none" stroke-width="0.8"/><circle cx="324.8" cy="270.6" r="2.8" fill="#9aa0a6" fill-opacity="0.2" stroke="none" stroke-width="0.8"/><circle cx="321.2" cy="253.5" r="2.9" fill="#9aa0a6" fill-opacity="0.2" stroke="none" stroke-width="0.8"/><circle cx="365.3" cy="236.8" r="3.3" fill="#9aa0a6" fill-opacity="0.2" stroke="none" stroke-width="0.8"/><circle cx="354.3" cy="236.1" r="3.2" fill="#9aa0a6" fill-opacity="0.2" stroke="none" stroke-width="0.8"/><circle cx="412.1" cy="337.9" r="2.8" fill="#9aa0a6" fill-opacity="0.2" stroke="none" stroke-width="0.8"/><circle cx="350.2" cy="324.0" r="2.9" fill="#9aa0a6" fill-opacity="0.2" stroke="none" stroke-width="0.8"/><circle cx="316.0" cy="257.4" r="3.0" fill="#9aa0a6" fill-opacity="0.2" stroke="none" stroke-width="0.8"/><text x="412" y="58" text-anchor="end" font-family="-apple-system,Segoe UI,Helvetica,Arial,sans-serif" font-size="11" fill="#009E73">ε = ε_coast − 0.13 (frozen)</text><rect x="66" y="305" width="12" height="12" rx="2" fill="#D55E00"/><text x="84" y="315" font-family="-apple-system,Segoe UI,Helvetica,Arial,sans-serif" font-size="11" fill="#222222">real descents (s̄ ≥ 3%, n = 21)</text><rect x="66" y="323" width="12" height="12" rx="2" fill="#9aa0a6"/><text x="84" y="333" font-family="-apple-system,Segoe UI,Helvetica,Arial,sans-serif" font-size="11" fill="#222222">gentle rides (bulk)</text><text x="66" y="350" font-family="-apple-system,Segoe UI,Helvetica,Arial,sans-serif" font-size="10" fill="#9aa0a6">most of this rider's riding is gentle — measured ε_bal sits far below the line</text></svg>
